<svg xmlns="http://www.w3.org/2000/svg" xmlns:xlink="http://www.w3.org/1999/xlink" xmlns:lucid="lucid" width="2125.92" height="1336.23"><g transform="translate(-9.679311657701419 480.99999999999994)" lucid:page-tab-id="0_0"><path d="M340 266a6 6 0 0 1 6-6h148a6 6 0 0 1 6 6v108a6 6 0 0 1-6 6H346a6 6 0 0 1-6-6z" fill="#ffd9d9"/><path d="M363.62 260h1.76m8.8 0h17.63m8.82 0h1.76m8.8 0h17.63m8.82 0h1.76m8.8 0h17.63m8.82 0h1.76m8.8 0H494a6 6 0 0 1 6 6v8.57m0 8.57v1.72m0 8.57v17.14m0 8.57v1.72m0 8.57v17.14m0 8.57v1.72m0 8.57V374a6 6 0 0 1-6 6h-8.8m-8.82 0h-1.76m-8.8 0h-17.63m-8.82 0h-1.76m-8.8 0h-17.63m-8.82 0h-1.76m-8.8 0h-17.63m-8.82 0h-1.76m-8.8 0H346a6 6 0 0 1-6-6v-8.57m0-8.57v-1.72m0-8.57v-17.14m0-8.57v-1.72m0-8.57v-17.14m0-8.57v-1.72m0-8.57V266a6 6 0 0 1 6-6h8.8" stroke="#fe7070" stroke-width="2" fill="none"/><use xlink:href="#a" transform="matrix(1,0,0,1,340,260) translate(55.211163194444445 66.52777777777777)"/><path d="M340 726a6 6 0 0 1 6-6h148a6 6 0 0 1 6 6v108a6 6 0 0 1-6 6H346a6 6 0 0 1-6-6z" stroke="#4c535d" stroke-width="2" fill="#dfe3e8"/><use xlink:href="#b" transform="matrix(1,0,0,1,340,720) translate(36.78125868055555 66.52777777777777)"/><path d="M1000 266a6 6 0 0 1 6-6h148a6 6 0 0 1 6 6v108a6 6 0 0 1-6 6h-148a6 6 0 0 1-6-6z" stroke="#4c535d" stroke-width="2" fill="#4c535d"/><use xlink:href="#c" transform="matrix(1,0,0,1,1000,260) translate(56.806215277777774 66.52777777777777)"/><path d="M1000 726a6 6 0 0 1 6-6h148a6 6 0 0 1 6 6v108a6 6 0 0 1-6 6h-148a6 6 0 0 1-6-6z" stroke="#4c535d" stroke-width="2" fill="#fafbfc"/><use xlink:href="#d" transform="matrix(1,0,0,1,1000,720) translate(29.082690972222224 66.52777777777777)"/><path d="M1660 266a6 6 0 0 1 6-6h148a6 6 0 0 1 6 6v108a6 6 0 0 1-6 6h-148a6 6 0 0 1-6-6z" stroke="#fcce14" stroke-width="2" fill="#fff3d9"/><use xlink:href="#e" transform="matrix(1,0,0,1,1660,260) translate(60.59310763888889 66.52777777777777)"/><path d="M745.5 253.95a6.86 6.86 0 0 1 9 0l71 62.1a5.25 5.25 0 0 1 0 7.9l-71 62.1a6.86 6.86 0 0 1-9 0l-71-62.1a5.25 5.25 0 0 1 0-7.9z" stroke="#000" stroke-width="2" fill="#fff"/><use xlink:href="#f" transform="matrix(1,0,0,1,670,250) translate(46.97548611111111 78.40277777777777)"/><path d="M1075.48 483.95a6.86 6.86 0 0 1 9.04 0l70.96 62.1a5.25 5.25 0 0 1 0 7.9l-70.96 62.1a6.86 6.86 0 0 1-9.04 0l-70.97-62.1a5.25 5.25 0 0 1 0-7.9z" stroke="#000" stroke-width="2" fill="#fff"/><use xlink:href="#g" transform="matrix(1,0,0,1,1000,480) translate(65.50847222222222 78.40277777777777)"/><path d="M415.5 483.95a6.86 6.86 0 0 1 9 0l71 62.1a5.25 5.25 0 0 1 0 7.9l-71 62.1a6.86 6.86 0 0 1-9 0l-71-62.1a5.25 5.25 0 0 1 0-7.9z" stroke="#000" stroke-width="2" fill="#fff"/><use xlink:href="#h" transform="matrix(1,0,0,1,340,480) translate(30.034296874999992 76.31944444444444)"/><path d="M1405.48 253.95a6.86 6.86 0 0 1 9.04 0l70.96 62.1a5.25 5.25 0 0 1 0 7.9l-70.96 62.1a6.86 6.86 0 0 1-9.04 0l-70.96-62.1a5.25 5.25 0 0 1 0-7.9z" stroke="#000" stroke-width="2" fill="#fff"/><use xlink:href="#i" transform="matrix(1,0,0,1,1330,250) translate(34.99631944444444 78.40277777777777)"/><path d="M1080.97 718h-1.94v-16.2h1.94zm0-43.1h-1.94v-55.15h1.94z" stroke="#5e5e5e" stroke-width=".05" fill="#5e5e5e"/><path d="M1080 618.75l.97-.07v1.1h-1.94v-1.1z" fill="#5e5e5e"/><path stroke="#5e5e5e" stroke-width=".05" fill="#5e5e5e"/><path d="M1080.97 719h-1.94v-1.03h1.94z" fill="#5e5e5e"/><path stroke="#5e5e5e" stroke-width=".05" fill="#5e5e5e"/><use xlink:href="#j" transform="matrix(1,0,0,1,1063.029513888889,674.911766630007) translate(0 21.52777777777778)"/><path d="M1080.97 480.25h-1.94v-66.6h1.94zm0-93.5h-1.94V382h1.94z" stroke="#5e5e5e" stroke-width=".05" fill="#5e5e5e"/><path d="M1080.97 481.32l-.97-.07-.97.07v-1.1h1.94z" fill="#5e5e5e"/><path stroke="#5e5e5e" stroke-width=".05" fill="#5e5e5e"/><path d="M1080.97 382.03h-1.94V381h1.94z" fill="#5e5e5e"/><path stroke="#5e5e5e" stroke-width=".05" fill="#5e5e5e"/><use xlink:href="#k" transform="matrix(1,0,0,1,1065.3352864583333,386.75598958333336) translate(0 21.52777777777778)"/><path d="M1330.72 320.98H1194.6v-1.96h136.12z" stroke="#5e5e5e" stroke-width=".05" fill="#5e5e5e"/><path fill="#5e5e5e"/><path stroke="#5e5e5e" stroke-width=".05" fill="#5e5e5e"/><path d="M1331.72 320l.08.98h-1.1v-1.96h1.1z" fill="#5e5e5e"/><path stroke="#5e5e5e" stroke-width=".05" fill="#5e5e5e"/><use xlink:href="#j" transform="matrix(1,0,0,1,1160.6521228500126,306.5559895833333) translate(0 21.52777777777778)"/><path d="M1609.43 320.98h-120.15v-1.96h120.15zm48.57 0h-14.63v-1.96H1658z" stroke="#5e5e5e" stroke-width=".05" fill="#5e5e5e"/><path d="M1659 320.98h-1.03v-1.96h1.03z" fill="#5e5e5e"/><path stroke="#5e5e5e" stroke-width=".05" fill="#5e5e5e"/><path d="M1489.3 320.98h-1.1l.08-.98-.08-.98h1.1z" fill="#5e5e5e"/><path stroke="#5e5e5e" stroke-width=".05" fill="#5e5e5e"/><use xlink:href="#j" transform="matrix(1,0,0,1,1609.4275323083757,306.5559895833333) translate(0 21.52777777777778)"/><path d="M961.03 320.98H829.28v-1.96h131.75zm36.97 0h-3.03v-1.96H998z" stroke="#5e5e5e" stroke-width=".05" fill="#5e5e5e"/><path d="M829.3 320.98h-1.1l.08-.98-.08-.98h1.1z" fill="#5e5e5e"/><path stroke="#5e5e5e" stroke-width=".05" fill="#5e5e5e"/><path d="M999 320.98h-1.03v-1.96H999z" fill="#5e5e5e"/><path stroke="#5e5e5e" stroke-width=".05" fill="#5e5e5e"/><use xlink:href="#j" transform="matrix(1,0,0,1,961.0295138888889,306.5559895833333) translate(0 21.52777777777778)"/><path d="M509.7 320.98H502v-1.96h7.7zm161.02 0H534.3v-1.96H670.7z" stroke="#5e5e5e" stroke-width=".05" fill="#5e5e5e"/><path d="M671.72 320l.08.98h-1.1v-1.96h1.1z" fill="#5e5e5e"/><path stroke="#5e5e5e" stroke-width=".05" fill="#5e5e5e"/><path d="M502.03 320.98H501v-1.96h1.03z" fill="#5e5e5e"/><path stroke="#5e5e5e" stroke-width=".05" fill="#5e5e5e"/><use xlink:href="#l" transform="matrix(1,0,0,1,509.71258854166666,306.55598958333326) translate(0 21.52777777777778)"/><path d="M420.98 480.25h-1.96V407.5h1.96z" stroke="#5e5e5e" stroke-width=".05" fill="#5e5e5e"/><path fill="#5e5e5e"/><path stroke="#5e5e5e" stroke-width=".05" fill="#5e5e5e"/><path d="M420.98 481.32l-.98-.07-.98.07v-1.1h1.96z" fill="#5e5e5e"/><path stroke="#5e5e5e" stroke-width=".05" fill="#5e5e5e"/><use xlink:href="#j" transform="matrix(1,0,0,1,403.0295138888889,380.60133036354233) translate(0 21.52777777777778)"/><path d="M420.98 718h-1.96v-5.42h1.96zm0-32.3h-1.96v-65.95h1.96z" stroke="#5e5e5e" stroke-width=".05" fill="#5e5e5e"/><path d="M420 618.75l.98-.07v1.1h-1.96v-1.1z" fill="#5e5e5e"/><path stroke="#5e5e5e" stroke-width=".05" fill="#5e5e5e"/><path d="M420.98 719h-1.96v-1.03h1.96z" fill="#5e5e5e"/><path stroke="#5e5e5e" stroke-width=".05" fill="#5e5e5e"/><use xlink:href="#j" transform="matrix(1,0,0,1,403.0295138888889,685.6921335218727) translate(0 21.52777777777778)"/><path d="M670-194a6 6 0 0 1 6-6h148a6 6 0 0 1 6 6v108a6 6 0 0 1-6 6H676a6 6 0 0 1-6-6z" stroke="#54c45e" stroke-width="2" fill="#c3f7c8"/><use xlink:href="#m" transform="matrix(1,0,0,1,670,-200) translate(56.05209201388889 66.52777777777777)"/><path d="M415.5 23.95a6.86 6.86 0 0 1 9 0l71 62.1a5.25 5.25 0 0 1 0 7.9l-71 62.1a6.86 6.86 0 0 1-9 0l-71-62.1a5.25 5.25 0 0 1 0-7.9z" stroke="#000" stroke-width="2" fill="#fff"/><use xlink:href="#n" transform="matrix(1,0,0,1,340,20) translate(50.122187499999995 78.40277777777777)"/><path d="M1075.48 12.52a6.86 6.86 0 0 1 9.04 0l70.96 62.1a5.25 5.25 0 0 1 0 7.9l-70.96 62.1a6.86 6.86 0 0 1-9.04 0l-70.97-62.1a5.25 5.25 0 0 1 0-7.9z" stroke="#000" stroke-width="2" fill="#fff"/><use xlink:href="#o" transform="matrix(1,0,0,1,1000,8.572485082423782) translate(38.59332465277778 78.40277777777777)"/><path d="M619.43-139.03h-193.4l-.82.07-.75.18-.73.3-.67.42-.6.5-.5.6-.43.68-.3.73-.18.76-.06.84v154.2h-1.96v-154.28l.1-1.05.24-1.06.42-1 .58-.94.7-.83.84-.72.93-.57 1-.42 1.08-.25 1.06-.07h193.47zm48.57 0h-14.63v-1.94H668z" stroke="#5e5e5e" stroke-width=".05" fill="#5e5e5e"/><path d="M420.98 21.32l-.98-.07-.98.07v-1.1h1.96z" fill="#5e5e5e"/><path stroke="#5e5e5e" stroke-width=".05" fill="#5e5e5e"/><path d="M669-139.03h-1.03v-1.94H669z" fill="#5e5e5e"/><path stroke="#5e5e5e" stroke-width=".05" fill="#5e5e5e"/><use xlink:href="#j" transform="matrix(1,0,0,1,619.4305060720334,-153.44401041666666) translate(0 21.52777777777778)"/><path d="M1075.1-140.9l1.06.26 1 .42.94.57.83.72.7.83.6.93.4 1 .26 1.08.07 1.06V8.82h-1.94v-142.78l-.07-.83-.18-.75-.3-.73-.42-.67-.5-.6-.6-.5-.68-.42-.73-.3-.76-.2-.84-.06H865.38v-1.94h208.66z" stroke="#5e5e5e" stroke-width=".05" fill="#5e5e5e"/><path d="M831.44-139.03H831v-1.94h.44z" fill="#5e5e5e"/><path stroke="#5e5e5e" stroke-width=".05" fill="#5e5e5e"/><path d="M1080.97 9.9l-.97-.08-.97.07V8.8h1.94z" fill="#5e5e5e"/><path stroke="#5e5e5e" stroke-width=".05" fill="#5e5e5e"/><use xlink:href="#j" transform="matrix(1,0,0,1,831.4443882787275,-153.44401041666666) translate(0 21.52777777777778)"/><path d="M420.98 258h-1.96v-4.43h1.96zm0-31.32h-1.96v-66.93h1.96z" stroke="#5e5e5e" stroke-width=".05" fill="#5e5e5e"/><path d="M420 158.75l.98-.07v1.1h-1.96v-1.1z" fill="#5e5e5e"/><path stroke="#5e5e5e" stroke-width=".05" fill="#5e5e5e"/><path d="M420.98 259h-1.96v-1.03h1.96z" fill="#5e5e5e"/><path stroke="#5e5e5e" stroke-width=".05" fill="#5e5e5e"/><path d="M1080.97 258h-1.94v-20.12h1.94zm0-47h-1.94v-62.68h1.94z" stroke="#5e5e5e" stroke-width=".05" fill="#5e5e5e"/><path d="M1080 147.32l.97-.07v1.1h-1.94v-1.1z" fill="#5e5e5e"/><path stroke="#5e5e5e" stroke-width=".05" fill="#5e5e5e"/><path d="M1080.97 259h-1.94v-1.03h1.94z" fill="#5e5e5e"/><path stroke="#5e5e5e" stroke-width=".05" fill="#5e5e5e"/><use xlink:href="#k" transform="matrix(1,0,0,1,1065.3352864583333,210.99664471671517) translate(0 21.52777777777778)"/><path d="M420.98 258h-1.96v-4.43h1.96zm0-31.32h-1.96V198.5h1.96z" stroke="#5e5e5e" stroke-width=".05" fill="#5e5e5e"/><path d="M420.98 259h-1.96v-1.03h1.96z" fill="#5e5e5e"/><path stroke="#5e5e5e" stroke-width=".05" fill="#5e5e5e"/><path d="M424.63 197.5h-9.26l4.63-14.26z" fill="#5e5e5e"/><path d="M425.98 198.48h-11.96l5.98-18.4zm-9.27-1.95h6.6L420 186.4z" stroke="#5e5e5e" stroke-width=".05" fill="#5e5e5e"/><use xlink:href="#k" transform="matrix(1,0,0,1,405.3352864583333,226.682607627205) translate(0 21.52777777777778)"/><path d="M134.6 266.92c0 7.26-25.65 13.14-57.3 13.14S20 274.18 20 266.92c0-7.25 25.65-13.14 57.3-13.14s57.3 5.9 57.3 13.14z" fill="#ffd9d9"/><path d="M109.1 277.74l-2.9.37m-14.4 1.35l-14.5.6-14.5-.6m-14.4-1.34l-2.9-.36m-14.14-3.02l-2.58-.8-2.93-1.2-1.82-.95-1.2-.75-.8-.63-.58-.53-.42-.45-.3-.4-.23-.36-.17-.32-.13-.3-.1-.3-.05-.28-.04-.27v-.55l.05-.27.06-.27.1-.3.13-.3.17-.32.23-.36.3-.4.42-.45.57-.52.8-.62 1.2-.75 1.83-.95 2.93-1.2 2.58-.8m14.15-3.03l2.9-.37m14.4-1.34l14.5-.62 14.5.6m14.4 1.35l2.9.37m14.14 3.03l2.58.8 2.93 1.2 1.82.95 1.2.75.8.62.58.52.42.46.3.4.23.35.17.33.13.3.1.3.05.28.04.27v.54l-.05.26-.06.28-.1.3-.13.3-.17.32-.23.36-.3.4-.42.45-.57.52-.8.62-1.2.75-1.83.94-2.93 1.22-2.58.8" stroke="#fe7070" stroke-width="2" fill="none"/><use xlink:href="#p" transform="matrix(1,0,0,1,20,253.78482758620694) translate(40.942988971148864 17.622249993491117)"/><path d="M134.6 231.54c0 7.25-25.65 13.14-57.3 13.14S20 238.78 20 231.54c0-7.26 25.65-13.14 57.3-13.14s57.3 5.88 57.3 13.14z" fill="#ffd9d9"/><path d="M109.1 242.36l-2.9.37m-14.4 1.34l-14.5.6-14.5-.6m-14.4-1.34l-2.9-.37m-14.14-3.03l-2.58-.8-2.93-1.2-1.82-.95-1.2-.75-.8-.62-.58-.5-.42-.47-.3-.4-.23-.35-.17-.33-.13-.3-.1-.3-.05-.27-.04-.27v-.53l.05-.27.06-.28.1-.3.13-.3.17-.32.23-.36.3-.4.42-.45.57-.53.8-.62 1.2-.76 1.83-.95 2.93-1.2 2.58-.8m14.15-3.03l2.9-.37M62.8 219l14.5-.6 14.5.6m14.4 1.35l2.9.37m14.14 3.02l2.58.8 2.93 1.2 1.82.95 1.2.75.8.62.58.52.42.44.3.4.23.36.17.32.13.3.1.3.05.28.04.27v.54l-.05.28-.06.28-.1.28-.13.3-.17.34-.23.36-.3.4-.42.45-.57.5-.8.63-1.2.75-1.83.95-2.93 1.2-2.58.8" stroke="#fe7070" stroke-width="2" fill="none"/><use xlink:href="#q" transform="matrix(1,0,0,1,20,218.4000000000001) translate(40.91088502787664 17.622249993491117)"/><path d="M134.6 337.7c0 7.25-25.65 13.13-57.3 13.13S20 344.95 20 337.7c0-7.26 25.65-13.15 57.3-13.15s57.3 5.9 57.3 13.14z" fill="#ffd9d9"/><path d="M109.1 348.5l-2.9.38m-14.4 1.34l-14.5.6-14.5-.6m-14.4-1.34l-2.9-.37m-14.14-3l-2.58-.8-2.93-1.22-1.82-.94-1.2-.75-.8-.64-.58-.52-.42-.45-.3-.4-.23-.37-.17-.32-.13-.3-.1-.3-.05-.27-.04-.27v-.55l.05-.27.06-.28.1-.3.13-.3.17-.32.23-.36.3-.4.42-.46.57-.52.8-.62 1.2-.75 1.83-.95 2.93-1.2 2.58-.8m14.15-3.03l2.9-.37m14.4-1.34l14.5-.6 14.5.6m14.4 1.34l2.9.37m14.14 3.03l2.58.8 2.93 1.2 1.82.95 1.2.75.8.62.58.52.42.45.3.4.23.35.17.33.13.3.1.3.05.27.04.27v.53l-.05.27-.06.28-.1.3-.13.3-.17.33-.23.36-.3.4-.42.44-.57.52-.8.62-1.2.76-1.83.94-2.93 1.2-2.58.8" stroke="#fe7070" stroke-width="2" fill="none"/><use xlink:href="#r" transform="matrix(1,0,0,1,20,324.55448275862074) translate(32.45976665875875 15.416478548652332)"/><path d="M134.6 302.3c0 7.26-25.65 13.15-57.3 13.15S20 309.55 20 302.3c0-7.25 25.65-13.13 57.3-13.13s57.3 5.88 57.3 13.14z" fill="#ffd9d9"/><path d="M109.1 313.13l-2.9.37m-14.4 1.34l-14.5.6-14.5-.6m-14.4-1.34l-2.9-.37m-14.14-3.03l-2.58-.8-2.93-1.2-1.82-.95-1.2-.75-.8-.62-.58-.52-.42-.45-.3-.4-.23-.35-.17-.33-.13-.3-.1-.3-.05-.27-.04-.27v-.53l.05-.27.06-.28.1-.3.13-.3.17-.33.23-.36.3-.4.42-.44.57-.52.8-.62 1.2-.76 1.83-.94 2.93-1.2 2.58-.8m14.15-3.03l2.9-.38m14.4-1.34l14.5-.6 14.5.6m14.4 1.34l2.9.37m14.14 3l2.58.8 2.93 1.22 1.82.94 1.2.75.8.64.58.52.42.45.3.4.23.37.17.32.13.3.1.3.05.27.04.27v.55l-.05.27-.06.28-.1.3-.13.3-.17.32-.23.36-.3.4-.42.46-.57.52-.8.62-1.2.75-1.83.95-2.93 1.2-2.58.8" stroke="#fe7070" stroke-width="2" fill="none"/><use xlink:href="#s" transform="matrix(1,0,0,1,20,289.16965517241385) translate(52.00814808564211 17.489092958123656)"/><path d="M134.6 373.08c0 7.25-25.65 13.13-57.3 13.13S20 380.34 20 373.1c0-7.26 25.65-13.14 57.3-13.14s57.3 5.88 57.3 13.14z" fill="#ffd9d9"/><path d="M109.1 383.9l-2.9.37m-14.4 1.34l-14.5.6-14.5-.6m-14.4-1.33l-2.9-.37m-14.14-3.03l-2.58-.8-2.93-1.2-1.82-.95-1.2-.75-.8-.62-.58-.52-.42-.46-.3-.4-.23-.35-.17-.33-.13-.3-.1-.3-.05-.28-.04-.27v-.54l.05-.26.06-.28.1-.3.13-.3.17-.32.23-.36.3-.4.42-.45.57-.52.8-.62 1.2-.75 1.83-.94 2.93-1.22 2.58-.8m14.15-3.02l2.9-.37m14.4-1.35l14.5-.6 14.5.6m14.4 1.34l2.9.36m14.14 3.02l2.58.8 2.93 1.2 1.82.95 1.2.75.8.63.58.53.42.45.3.4.23.36.17.32.13.3.1.3.05.28.04.27v.55l-.05.27-.06.27-.1.3-.13.3-.17.32-.23.36-.3.4-.42.45-.57.52-.8.62-1.2.75-1.83.95-2.93 1.2-2.58.8" stroke="#fe7070" stroke-width="2" fill="none"/><use xlink:href="#t" transform="matrix(1,0,0,1,20,359.93931034482756) translate(30.019898499157083 15.416478548652332)"/><path d="M134.6 408.46c0 7.26-25.65 13.14-57.3 13.14S20 415.72 20 408.46c0-7.25 25.65-13.14 57.3-13.14s57.3 5.9 57.3 13.14z" fill="#ffd9d9"/><path d="M109.1 419.28l-2.9.37M91.8 421l-14.5.6-14.5-.6m-14.4-1.35l-2.9-.37m-14.14-3.02l-2.58-.8-2.93-1.2-1.82-.95-1.2-.75-.8-.62-.58-.52-.42-.44-.3-.4-.23-.36-.17-.32-.13-.3-.1-.3-.05-.28-.04-.27v-.54l.05-.28.06-.28.1-.28.13-.3.17-.34.23-.36.3-.4.42-.45.57-.5.8-.63 1.2-.75 1.83-.95 2.93-1.2 2.58-.8m14.15-3.03l2.9-.37m14.4-1.34l14.5-.6 14.5.6m14.4 1.34l2.9.37m14.14 3.03l2.58.8 2.93 1.2 1.82.94 1.2.77.8.62.58.5.42.46.3.4.23.36.17.33.13.3.1.3.05.27.04.27v.53l-.05.27-.06.28-.1.3-.13.3-.17.32-.23.36-.3.4-.42.45-.57.53-.8.62-1.2.76-1.83.95-2.93 1.2-2.58.8" stroke="#fe7070" stroke-width="2" fill="none"/><use xlink:href="#u" transform="matrix(1,0,0,1,20,395.3241379310344) translate(29.606541165427863 15.416478548652332)"/><path d="M136.6 231.54h94.7a6 6 0 0 1 6 6V314a6 6 0 0 0 6 6h77.2" stroke="#5e5e5e" stroke-width="2" fill="none"/><path d="M136.63 232.5h-1.15l.06-.25.05-.36v-.72l-.06-.36-.06-.26h1.15z" stroke="#5e5e5e" stroke-width=".05" fill="#5e5e5e"/><path d="M335.76 320l-14.26 4.63v-9.26z" stroke="#5e5e5e" stroke-width="2" fill="#5e5e5e"/><path d="M136.6 408.46h94.7a6 6 0 0 0 6-6V326a6 6 0 0 1 6-6h77.2" stroke="#5e5e5e" stroke-width="2" fill="none"/><path d="M136.63 409.44h-1.15l.06-.26.05-.36v-.71l-.06-.35-.06-.26h1.15z" stroke="#5e5e5e" stroke-width=".05" fill="#5e5e5e"/><path d="M335.76 320l-14.26 4.63v-9.26z" stroke="#5e5e5e" stroke-width="2" fill="#5e5e5e"/><path d="M136.6 373.08h94.7a6 6 0 0 0 6-6V326a6 6 0 0 1 6-6h77.2" stroke="#5e5e5e" stroke-width="2" fill="none"/><path d="M136.63 374.05h-1.15l.06-.26.05-.37v-.71l-.06-.36-.06-.26h1.15z" stroke="#5e5e5e" stroke-width=".05" fill="#5e5e5e"/><path d="M335.76 320l-14.26 4.63v-9.26z" stroke="#5e5e5e" stroke-width="2" fill="#5e5e5e"/><path d="M136.6 337.7h94.7a6 6 0 0 0 6-6V326a6 6 0 0 1 6-6h77.2" stroke="#5e5e5e" stroke-width="2" fill="none"/><path d="M136.63 338.67h-1.15l.06-.26.05-.35v-.7l-.06-.36-.06-.26h1.15z" stroke="#5e5e5e" stroke-width=".05" fill="#5e5e5e"/><path d="M335.76 320l-14.26 4.63v-9.26z" stroke="#5e5e5e" stroke-width="2" fill="#5e5e5e"/><path d="M136.6 302.3h94.7a6 6 0 0 1 6 6v5.7a6 6 0 0 0 6 6h77.2" stroke="#5e5e5e" stroke-width="2" fill="none"/><path d="M136.63 303.28h-1.15l.06-.26.05-.36v-.72l-.06-.36-.06-.27h1.15z" stroke="#5e5e5e" stroke-width=".05" fill="#5e5e5e"/><path d="M335.76 320l-14.26 4.63v-9.26z" stroke="#5e5e5e" stroke-width="2" fill="#5e5e5e"/><path d="M136.6 266.92h94.7a6 6 0 0 1 6 6V314a6 6 0 0 0 6 6h77.2" stroke="#5e5e5e" stroke-width="2" fill="none"/><path d="M136.63 267.9h-1.15l.06-.26.05-.36v-.71l-.06-.36-.06-.25h1.15z" stroke="#5e5e5e" stroke-width=".05" fill="#5e5e5e"/><path d="M335.76 320l-14.26 4.63v-9.26z" stroke="#5e5e5e" stroke-width="2" fill="#5e5e5e"/><path d="M734.6-431.48c0 7.26-25.65 13.14-57.3 13.14s-57.3-5.88-57.3-13.14c0-7.25 25.65-13.13 57.3-13.13s57.3 5.87 57.3 13.12z" stroke="#54c45e" stroke-width="2" fill="#c3f7c8"/><use xlink:href="#v" transform="matrix(1,0,0,1,620.0000000000001,-444.6151724137931) translate(31.204856189180827 15.416478548652336)"/><path d="M734.6-466.86c0 7.25-25.65 13.14-57.3 13.14s-57.3-5.9-57.3-13.14c0-7.26 25.65-13.14 57.3-13.14s57.3 5.88 57.3 13.14z" stroke="#54c45e" stroke-width="2" fill="#c3f7c8"/><use xlink:href="#w" transform="matrix(1,0,0,1,620,-479.99999999999994) translate(30.237547249926106 15.420545695467666)"/><path d="M734.6-360.7c0 7.25-25.65 13.13-57.3 13.13S620-353.45 620-360.7c0-7.26 25.65-13.15 57.3-13.15s57.3 5.9 57.3 13.14z" stroke="#54c45e" stroke-width="2" fill="#c3f7c8"/><use xlink:href="#x" transform="matrix(1,0,0,1,620.0000000000001,-373.8455172413794) translate(39.848779571287224 17.62224999349112)"/><path d="M734.6-396.1c0 7.26-25.65 13.15-57.3 13.15s-57.3-5.9-57.3-13.14c0-7.25 25.65-13.13 57.3-13.13s57.3 5.88 57.3 13.14z" stroke="#54c45e" stroke-width="2" fill="#c3f7c8"/><use xlink:href="#s" transform="matrix(1,0,0,1,620.0000000000001,-409.23034482758624) translate(52.00814808564211 17.489092958123656)"/><path d="M734.6-325.32c0 7.25-25.65 13.13-57.3 13.13S620-318.06 620-325.3c0-7.26 25.65-13.14 57.3-13.14s57.3 5.88 57.3 13.14z" stroke="#54c45e" stroke-width="2" fill="#c3f7c8"/><use xlink:href="#t" transform="matrix(1,0,0,1,620.0000000000001,-338.4606896551726) translate(30.019898499157083 15.416478548652332)"/><path d="M734.6-289.94c0 7.26-25.65 13.14-57.3 13.14s-57.3-5.88-57.3-13.14c0-7.25 25.65-13.14 57.3-13.14s57.3 5.9 57.3 13.14z" stroke="#54c45e" stroke-width="2" fill="#c3f7c8"/><use xlink:href="#u" transform="matrix(1,0,0,1,620,-303.07586206896576) translate(29.606541165427863 15.416478548652332)"/><path d="M736.6-466.86h7.4a6 6 0 0 1 6 6v243.46" stroke="#5e5e5e" stroke-width="2" fill="none"/><path d="M736.63-465.9h-1.15l.06-.25.05-.36v-.72l-.06-.36-.06-.26h1.15z" stroke="#5e5e5e" stroke-width=".05" fill="#5e5e5e"/><path d="M750-202.14l-4.63-14.26h9.26z" stroke="#5e5e5e" stroke-width="2" fill="#5e5e5e"/><path d="M736.6-289.94h7.4a6 6 0 0 1 6 6v66.54" stroke="#5e5e5e" stroke-width="2" fill="none"/><path d="M736.63-288.96h-1.15l.06-.26.05-.36v-.71l-.06-.35-.06-.26h1.15z" stroke="#5e5e5e" stroke-width=".05" fill="#5e5e5e"/><path d="M750-202.14l-4.63-14.26h9.26z" stroke="#5e5e5e" stroke-width="2" fill="#5e5e5e"/><path d="M736.6-325.32h7.4a6 6 0 0 1 6 6v101.92" stroke="#5e5e5e" stroke-width="2" fill="none"/><path d="M736.63-324.35h-1.15l.06-.26.05-.37v-.71l-.06-.36-.06-.26h1.15z" stroke="#5e5e5e" stroke-width=".05" fill="#5e5e5e"/><path d="M750-202.14l-4.63-14.26h9.26z" stroke="#5e5e5e" stroke-width="2" fill="#5e5e5e"/><path d="M736.6-360.7h7.4a6 6 0 0 1 6 6v137.3" stroke="#5e5e5e" stroke-width="2" fill="none"/><path d="M736.63-359.73h-1.15l.06-.26.05-.35v-.7l-.06-.36-.06-.26h1.15z" stroke="#5e5e5e" stroke-width=".05" fill="#5e5e5e"/><path d="M750-202.14l-4.63-14.26h9.26z" stroke="#5e5e5e" stroke-width="2" fill="#5e5e5e"/><path d="M736.6-396.1h7.4a6 6 0 0 1 6 6v172.7" stroke="#5e5e5e" stroke-width="2" fill="none"/><path d="M736.63-395.12h-1.15l.06-.26.05-.36v-.71l-.06-.36-.06-.27h1.15z" stroke="#5e5e5e" stroke-width=".05" fill="#5e5e5e"/><path d="M750-202.14l-4.63-14.26h9.26z" stroke="#5e5e5e" stroke-width="2" fill="#5e5e5e"/><path d="M736.6-431.48h7.4a6 6 0 0 1 6 6v208.08" stroke="#5e5e5e" stroke-width="2" fill="none"/><path d="M736.63-430.5h-1.15l.06-.26.05-.36v-.71l-.06-.36-.06-.25h1.15z" stroke="#5e5e5e" stroke-width=".05" fill="#5e5e5e"/><path d="M750-202.14l-4.63-14.26h9.26z" stroke="#5e5e5e" stroke-width="2" fill="#5e5e5e"/><path d="M2134.6 260.1c0 7.25-25.65 13.13-57.3 13.13s-57.3-5.88-57.3-13.14c0-7.27 25.65-13.15 57.3-13.15s57.3 5.9 57.3 13.14z" stroke="#fcce14" stroke-width="2" fill="#fff3d9"/><use xlink:href="#p" transform="matrix(1,0,0,1,2019.9999999999998,246.95310344827593) translate(40.942988971148864 17.622249993491117)"/><path d="M2134.6 300.03c0 7.26-25.65 13.14-57.3 13.14s-57.3-5.88-57.3-13.14c0-7.26 25.65-13.14 57.3-13.14s57.3 5.87 57.3 13.13z" stroke="#fcce14" stroke-width="2" fill="#fff3d9"/><use xlink:href="#s" transform="matrix(1,0,0,1,2019.9999999999998,286.89241379310346) translate(52.00814808564211 17.489092958123656)"/><path d="M2134.6 339.97c0 7.26-25.65 13.14-57.3 13.14s-57.3-5.87-57.3-13.13c0-7.26 25.65-13.14 57.3-13.14s57.3 5.88 57.3 13.14z" stroke="#fcce14" stroke-width="2" fill="#fff3d9"/><use xlink:href="#t" transform="matrix(1,0,0,1,2019.9999999999998,326.83172413793096) translate(30.019898499157083 15.416478548652332)"/><path d="M2134.6 379.9c0 7.27-25.65 13.15-57.3 13.15s-57.3-5.88-57.3-13.14c0-7.25 25.65-13.13 57.3-13.13s57.3 5.88 57.3 13.14z" stroke="#fcce14" stroke-width="2" fill="#fff3d9"/><use xlink:href="#u" transform="matrix(1,0,0,1,2019.9999999999998,366.77103448275847) translate(29.606541165427863 15.416478548652332)"/><path d="M2018 260.1h-92a6 6 0 0 0-6 6V314a6 6 0 0 1-6 6h-74.5" stroke="#5e5e5e" stroke-width="2" fill="none"/><path d="M2019.06 259.38l-.04.36-.02.35.02.35.04.36.06.27h-1.15v-1.95h1.15z" stroke="#5e5e5e" stroke-width=".05" fill="#5e5e5e"/><path d="M1824.24 320l14.26-4.63v9.26z" stroke="#5e5e5e" stroke-width="2" fill="#5e5e5e"/><path d="M2018 300.03h-92a6 6 0 0 0-6 6V314a6 6 0 0 1-6 6h-74.5" stroke="#5e5e5e" stroke-width="2" fill="none"/><path d="M2019.06 299.32l-.04.35-.02.36.02.36.04.35.06.25h-1.15v-1.94h1.15z" stroke="#5e5e5e" stroke-width=".05" fill="#5e5e5e"/><path d="M1824.24 320l14.26-4.63v9.26z" stroke="#5e5e5e" stroke-width="2" fill="#5e5e5e"/><path d="M2018 339.97h-92a6 6 0 0 1-6-6V326a6 6 0 0 0-6-6h-74.5" stroke="#5e5e5e" stroke-width="2" fill="none"/><path d="M2019.06 339.25l-.04.36-.02.37.02.36.04.35.06.26h-1.15V339h1.15z" stroke="#5e5e5e" stroke-width=".05" fill="#5e5e5e"/><path d="M1824.24 320l14.26-4.63v9.26z" stroke="#5e5e5e" stroke-width="2" fill="#5e5e5e"/><path d="M2018 379.9h-92a6 6 0 0 1-6-6V326a6 6 0 0 0-6-6h-74.5" stroke="#5e5e5e" stroke-width="2" fill="none"/><path d="M2019.06 379.2l-.04.35-.02.36.02.37.04.35.06.26h-1.15v-1.95h1.15z" stroke="#5e5e5e" stroke-width=".05" fill="#5e5e5e"/><path d="M1824.24 320l14.26-4.63v9.26z" stroke="#5e5e5e" stroke-width="2" fill="#5e5e5e"/><path d="M1473.6 720.1c0 7.25-25.65 13.13-57.3 13.13s-57.3-5.88-57.3-13.14c0-7.26 25.65-13.15 57.3-13.15s57.3 5.88 57.3 13.14z" stroke="#4c535d" stroke-width="2" fill="#fafbfc"/><use xlink:href="#y" transform="matrix(1,0,0,1,1359.0000499999992,706.953103448276) translate(26.532858427441383 15.416478548652336)"/><path d="M1473.6 760.03c0 7.26-25.65 13.14-57.3 13.14s-57.3-5.88-57.3-13.14c0-7.26 25.65-13.14 57.3-13.14s57.3 5.87 57.3 13.13z" stroke="#4c535d" stroke-width="2" fill="#fafbfc"/><use xlink:href="#s" transform="matrix(1,0,0,1,1359.0000499999992,746.8924137931035) translate(52.00814808564211 17.489092958123656)"/><path d="M1473.6 799.97c0 7.26-25.65 13.14-57.3 13.14s-57.3-5.87-57.3-13.13c0-7.26 25.65-13.14 57.3-13.14s57.3 5.88 57.3 13.14z" stroke="#4c535d" stroke-width="2" fill="#fafbfc"/><use xlink:href="#t" transform="matrix(1,0,0,1,1359.0000499999992,786.831724137931) translate(30.019898499157083 15.416478548652332)"/><path d="M1473.6 839.9c0 7.26-25.65 13.15-57.3 13.15s-57.3-5.88-57.3-13.14c0-7.25 25.65-13.13 57.3-13.13s57.3 5.88 57.3 13.14z" stroke="#4c535d" stroke-width="2" fill="#fafbfc"/><use xlink:href="#u" transform="matrix(1,0,0,1,1359.0000499999992,826.7710344827585) translate(29.606541165427863 15.416478548652332)"/><path d="M1357 720.1h-92a6 6 0 0 0-6 6V774a6 6 0 0 1-6 6h-74.5" stroke="#5e5e5e" stroke-width="2" fill="none"/><path d="M1358.06 719.38l-.04.36-.02.35.02.35.04.36.06.27h-1.15v-1.95h1.15z" stroke="#5e5e5e" stroke-width=".05" fill="#5e5e5e"/><path d="M1163.24 780l14.26-4.63v9.26z" stroke="#5e5e5e" stroke-width="2" fill="#5e5e5e"/><path d="M1357 760.03h-92a6 6 0 0 0-6 6V774a6 6 0 0 1-6 6h-74.5" stroke="#5e5e5e" stroke-width="2" fill="none"/><path d="M1358.06 759.32l-.04.35-.02.36.02.36.04.35.06.25h-1.15v-1.95h1.15z" stroke="#5e5e5e" stroke-width=".05" fill="#5e5e5e"/><path d="M1163.24 780l14.26-4.63v9.26z" stroke="#5e5e5e" stroke-width="2" fill="#5e5e5e"/><path d="M1357 799.97h-92a6 6 0 0 1-6-6V786a6 6 0 0 0-6-6h-74.5" stroke="#5e5e5e" stroke-width="2" fill="none"/><path d="M1358.06 799.25l-.04.36-.02.37.02.36.04.35.06.27h-1.15V799h1.15z" stroke="#5e5e5e" stroke-width=".05" fill="#5e5e5e"/><path d="M1163.24 780l14.26-4.63v9.26z" stroke="#5e5e5e" stroke-width="2" fill="#5e5e5e"/><path d="M1357 839.9h-92a6 6 0 0 1-6-6V786a6 6 0 0 0-6-6h-74.5" stroke="#5e5e5e" stroke-width="2" fill="none"/><path d="M1358.06 839.2l-.04.35-.02.36.02.37.04.35.06.26h-1.15v-1.95h1.15z" stroke="#5e5e5e" stroke-width=".05" fill="#5e5e5e"/><path d="M1163.24 780l14.26-4.63v9.26z" stroke="#5e5e5e" stroke-width="2" fill="#5e5e5e"/><path d="M874.6 434.74c0 7.25-25.65 13.14-57.3 13.14s-57.3-5.9-57.3-13.14c0-7.26 25.65-13.14 57.3-13.14s57.3 5.88 57.3 13.14z" stroke="#4c535d" stroke-width="2" fill="#4c535d"/><use xlink:href="#z" transform="matrix(1,0,0,1,760,421.5999999999999) translate(41.89040484850846 17.001850727618866)"/><path d="M874.6 474.68c0 7.25-25.65 13.13-57.3 13.13S760 481.94 760 474.7c0-7.26 25.65-13.14 57.3-13.14s57.3 5.88 57.3 13.14z" stroke="#4c535d" stroke-width="2" fill="#4c535d"/><use xlink:href="#A" transform="matrix(1,0,0,1,760,461.5393103448274) translate(52.00814808564211 17.489092958123656)"/><path d="M874.6 594.5c0 7.25-25.65 13.13-57.3 13.13S760 601.75 760 594.5c0-7.26 25.65-13.14 57.3-13.14s57.3 5.88 57.3 13.13z" stroke="#4c535d" stroke-width="2" fill="#4c535d"/><use xlink:href="#B" transform="matrix(1,0,0,1,760,581.3572413793097) translate(30.019898499157083 15.416478548652332)"/><path d="M874.6 634.43c0 7.26-25.65 13.14-57.3 13.14S760 641.7 760 634.43c0-7.25 25.65-13.13 57.3-13.13s57.3 5.88 57.3 13.13z" stroke="#4c535d" stroke-width="2" fill="#4c535d"/><use xlink:href="#C" transform="matrix(1,0,0,1,760,621.2965517241371) translate(29.606541165427863 15.416478548652332)"/><path d="M874.6 514.62c0 7.25-25.65 13.13-57.3 13.13s-57.3-5.88-57.3-13.13c0-7.26 25.65-13.14 57.3-13.14s57.3 5.88 57.3 13.14z" stroke="#4c535d" stroke-width="2" fill="#4c535d"/><use xlink:href="#D" transform="matrix(1,0,0,1,760,501.478620689655) translate(23.32644749527319 15.265256573632175)"/><path d="M874.6 554.56c0 7.25-25.65 13.13-57.3 13.13s-57.3-5.9-57.3-13.14c0-7.26 25.65-13.14 57.3-13.14s57.3 5.88 57.3 13.14z" stroke="#4c535d" stroke-width="2" fill="#4c535d"/><use xlink:href="#E" transform="matrix(1,0,0,1,760,541.4179310344823) translate(35.756026422599426 15.41647854865231)"/><path d="M876.6 434.74h54.74a6 6 0 0 0 6-6V381.1a6 6 0 0 1 6-6h37.24" stroke="#5e5e5e" stroke-width="2" fill="none"/><path d="M876.63 435.7h-1.15l.06-.25.05-.36v-.72l-.06-.36-.06-.26h1.15z" stroke="#5e5e5e" stroke-width=".05" fill="#5e5e5e"/><path d="M995.85 375.1l-14.27 4.63v-9.27z" stroke="#5e5e5e" stroke-width="2" fill="#5e5e5e"/><path d="M876.6 474.68h54.74a6 6 0 0 0 6-6V381.1a6 6 0 0 1 6-6h37.24" stroke="#5e5e5e" stroke-width="2" fill="none"/><path d="M876.63 475.65h-1.15l.06-.26.05-.37v-.71l-.06-.36-.06-.26h1.15z" stroke="#5e5e5e" stroke-width=".05" fill="#5e5e5e"/><path d="M995.85 375.1l-14.27 4.63v-9.27z" stroke="#5e5e5e" stroke-width="2" fill="#5e5e5e"/><path d="M876.6 514.62h54.74a6 6 0 0 0 6-6V381.1a6 6 0 0 1 6-6h37.24" stroke="#5e5e5e" stroke-width="2" fill="none"/><path d="M876.63 515.6h-1.15l.06-.27.05-.36v-.72l-.06-.36-.06-.26h1.15z" stroke="#5e5e5e" stroke-width=".05" fill="#5e5e5e"/><path d="M995.85 375.1l-14.27 4.63v-9.27z" stroke="#5e5e5e" stroke-width="2" fill="#5e5e5e"/><path d="M876.6 554.56h54.74a6 6 0 0 0 6-6V381.1a6 6 0 0 1 6-6h37.24" stroke="#5e5e5e" stroke-width="2" fill="none"/><path d="M876.63 555.53h-1.15l.06-.26.05-.36v-.7l-.06-.36-.06-.26h1.15z" stroke="#5e5e5e" stroke-width=".05" fill="#5e5e5e"/><path d="M995.85 375.1l-14.27 4.63v-9.27z" stroke="#5e5e5e" stroke-width="2" fill="#5e5e5e"/><path d="M876.6 594.5h54.74a6 6 0 0 0 6-6V381.1a6 6 0 0 1 6-6h37.24" stroke="#5e5e5e" stroke-width="2" fill="none"/><path d="M876.63 595.47h-1.15l.06-.26.05-.35v-.71l-.06-.36-.06-.26h1.15z" stroke="#5e5e5e" stroke-width=".05" fill="#5e5e5e"/><path d="M995.85 375.1l-14.27 4.63v-9.27z" stroke="#5e5e5e" stroke-width="2" fill="#5e5e5e"/><path d="M876.6 634.43h54.74a6 6 0 0 0 6-6V381.1a6 6 0 0 1 6-6h37.24" stroke="#5e5e5e" stroke-width="2" fill="none"/><path d="M876.63 635.4h-1.15l.06-.25.05-.36v-.71l-.06-.36-.06-.26h1.15z" stroke="#5e5e5e" stroke-width=".05" fill="#5e5e5e"/><path d="M995.85 375.1l-14.27 4.63v-9.27z" stroke="#5e5e5e" stroke-width="2" fill="#5e5e5e"/><path d="M125.28 721.28c0 7.25-25.66 13.13-57.3 13.13-31.65 0-57.3-5.87-57.3-13.12 0-7.26 25.65-13.14 57.3-13.14 31.64 0 57.3 5.88 57.3 13.14z" stroke="#4c535d" stroke-width="2" fill="#dfe3e8"/><use xlink:href="#p" transform="matrix(1,0,0,1,10.679311657701419,708.138109568508) translate(40.942988971148864 17.622249993491117)"/><path d="M125.28 761.2c0 7.27-25.66 13.15-57.3 13.15-31.65 0-57.3-5.88-57.3-13.13 0-7.26 25.65-13.14 57.3-13.14 31.64 0 57.3 5.88 57.3 13.13z" stroke="#4c535d" stroke-width="2" fill="#dfe3e8"/><use xlink:href="#s" transform="matrix(1,0,0,1,10.679311657701419,748.0774199133355) translate(52.00814808564211 17.489092958123656)"/><path d="M125.28 801.15c0 7.26-25.66 13.14-57.3 13.14-31.65 0-57.3-5.9-57.3-13.14 0-7.26 25.65-13.14 57.3-13.14 31.64 0 57.3 5.88 57.3 13.13z" stroke="#4c535d" stroke-width="2" fill="#dfe3e8"/><use xlink:href="#t" transform="matrix(1,0,0,1,10.679311657701419,788.016730258163) translate(30.019898499157083 15.416478548652332)"/><path d="M125.28 841.1c0 7.25-25.66 13.13-57.3 13.13-31.65 0-57.3-5.88-57.3-13.14 0-7.26 25.65-13.14 57.3-13.14 31.64 0 57.3 5.88 57.3 13.13z" stroke="#4c535d" stroke-width="2" fill="#dfe3e8"/><use xlink:href="#u" transform="matrix(1,0,0,1,10.679311657701419,827.9560406029905) translate(29.606541165427863 15.416478548652332)"/><path d="M127.28 721.28h99.36a6 6 0 0 1 6 6V774a6 6 0 0 0 6 6h81.86" stroke="#5e5e5e" stroke-width="2" fill="none"/><path d="M127.3 722.25h-1.14l.06-.26.05-.37v-.71l-.05-.36-.06-.26h1.15z" stroke="#5e5e5e" stroke-width=".05" fill="#5e5e5e"/><path d="M335.76 780l-14.26 4.63v-9.26z" stroke="#5e5e5e" stroke-width="2" fill="#5e5e5e"/><path d="M127.28 761.2h99.36a6 6 0 0 1 6 6v6.8a6 6 0 0 0 6 6h81.86" stroke="#5e5e5e" stroke-width="2" fill="none"/><path d="M127.3 762.2h-1.14l.06-.27.05-.36v-.72l-.05-.36-.06-.26h1.15z" stroke="#5e5e5e" stroke-width=".05" fill="#5e5e5e"/><path d="M335.76 780l-14.26 4.63v-9.26z" stroke="#5e5e5e" stroke-width="2" fill="#5e5e5e"/><path d="M127.28 801.15h99.36a6 6 0 0 0 6-6V786a6 6 0 0 1 6-6h81.86" stroke="#5e5e5e" stroke-width="2" fill="none"/><path d="M127.3 802.13h-1.14l.06-.26.05-.36v-.7l-.05-.36-.06-.26h1.15z" stroke="#5e5e5e" stroke-width=".05" fill="#5e5e5e"/><path d="M335.76 780l-14.26 4.63v-9.26z" stroke="#5e5e5e" stroke-width="2" fill="#5e5e5e"/><path d="M127.28 841.1h99.36a6 6 0 0 0 6-6V786a6 6 0 0 1 6-6h81.86" stroke="#5e5e5e" stroke-width="2" fill="none"/><path d="M127.3 842.07h-1.14l.06-.26.05-.35v-.71l-.05-.36-.06-.26h1.15z" stroke="#5e5e5e" stroke-width=".05" fill="#5e5e5e"/><path d="M335.76 780l-14.26 4.63v-9.26z" stroke="#5e5e5e" stroke-width="2" fill="#5e5e5e"/><defs><path d="M763 24c-353 0-583-224-583-531v-983h190v968c0 214 149 370 393 370 243 0 391-156 391-370v-968h190v983c0 307-230 531-581 531" id="F"/><path d="M538 24C308 24 148-78 108-271l171-41c32 123 123 178 257 178 156 0 256-77 256-169 0-77-54-128-164-154l-186-44c-203-48-300-148-300-305 0-192 176-326 414-326 230 0 351 112 402 269l-163 42c-31-80-94-158-238-158-133 0-233 69-233 162 0 83 57 129 188 160l169 40c203 48 298 149 298 302 0 196-179 339-441 339" id="G"/><path d="M628 24c-324 0-524-230-524-574 0-343 198-582 503-582 237 0 487 146 487 559v75H286c9 234 145 362 343 362 132 0 231-58 273-172l174 48C1024-91 857 24 628 24zM287-650h624c-17-190-120-322-304-322-192 0-309 151-320 322" id="H"/><path d="M158 0v-1118h174v172h12c41-113 157-188 290-188 26 0 70 2 91 3v181c-11-2-60-10-108-10-161 0-279 109-279 260V0H158" id="I"/><g id="a"><use transform="matrix(0.010850694444444444,0,0,0.010850694444444444,0,0)" xlink:href="#F"/><use transform="matrix(0.010850694444444444,0,0,0.010850694444444444,16.536458333333332,0)" xlink:href="#G"/><use transform="matrix(0.010850694444444444,0,0,0.010850694444444444,28.266059027777775,0)" xlink:href="#H"/><use transform="matrix(0.010850694444444444,0,0,0.010850694444444444,41.22178819444444,0)" xlink:href="#I"/></g><path d="M783 20c-382 0-661-292-661-764 0-473 279-766 661-766 302 0 548 182 601 489h-190c-42-204-217-313-411-313-268 0-476 208-476 590 0 381 209 588 476 588 195 0 369-110 411-313h190c-52 303-296 489-601 489" id="J"/><path d="M338-670V0H158v-1490h180v566c73-149 190-208 336-208 226 0 379 139 379 422V0H872v-695c0-172-96-275-252-275-161 0-282 109-282 300" id="K"/><path d="M471 26C259 26 90-98 90-318c0-256 228-303 435-329 202-27 287-16 287-108 0-139-79-219-234-219-161 0-248 86-283 164l-173-57c86-203 278-265 451-265 150 0 419 46 419 395V0H815v-152h-12C765-73 660 26 471 26zm31-159c199 0 310-134 310-271v-155c-30 35-226 55-295 64-131 17-246 59-246 186 0 116 97 176 231 176" id="L"/><path d="M338-670V0H158v-1118h173l1 207c72-158 192-221 342-221 226 0 378 139 378 422V0H872v-695c0-172-96-275-252-275-161 0-282 109-282 300" id="M"/><path d="M338-1490V0H158v-1490h180" id="N"/><g id="b"><use transform="matrix(0.010850694444444444,0,0,0.010850694444444444,0,0)" xlink:href="#J"/><use transform="matrix(0.010850694444444444,0,0,0.010850694444444444,16.23263888888889,0)" xlink:href="#K"/><use transform="matrix(0.010850694444444444,0,0,0.010850694444444444,29.37282986111111,0)" xlink:href="#L"/><use transform="matrix(0.010850694444444444,0,0,0.010850694444444444,41.85112847222222,0)" xlink:href="#M"/><use transform="matrix(0.010850694444444444,0,0,0.010850694444444444,54.98046875,0)" xlink:href="#M"/><use transform="matrix(0.010850694444444444,0,0,0.010850694444444444,68.10980902777777,0)" xlink:href="#H"/><use transform="matrix(0.010850694444444444,0,0,0.010850694444444444,81.06553819444444,0)" xlink:href="#N"/></g><path fill="#fff" d="M180 0v-1490h510c348 0 508 209 508 474 0 266-160 477-507 477H370V0H180zm190-706h312c236 0 327-133 327-310 0-176-91-307-329-307H370v617" id="O"/><path fill="#fff" d="M613 24c-304 0-509-231-509-576 0-350 205-580 509-580 305 0 511 230 511 580 0 345-206 576-511 576zm0-161c226 0 329-195 329-415 0-222-103-419-329-419-223 0-326 196-326 419 0 220 103 415 326 415" id="P"/><path fill="#fff" d="M538 24C308 24 148-78 108-271l171-41c32 123 123 178 257 178 156 0 256-77 256-169 0-77-54-128-164-154l-186-44c-203-48-300-148-300-305 0-192 176-326 414-326 230 0 351 112 402 269l-163 42c-31-80-94-158-238-158-133 0-233 69-233 162 0 83 57 129 188 160l169 40c203 48 298 149 298 302 0 196-179 339-441 339" id="Q"/><path fill="#fff" d="M598-1118v154H368v674c0 100 37 144 132 144 23 0 62-6 92-12L629-6c-37 13-88 20-134 20-193 0-307-107-307-290v-688H20v-154h168v-266h180v266h230" id="R"/><g id="c"><use transform="matrix(0.010850694444444444,0,0,0.010850694444444444,0,0)" xlink:href="#O"/><use transform="matrix(0.010850694444444444,0,0,0.010850694444444444,14.073350694444445,0)" xlink:href="#P"/><use transform="matrix(0.010850694444444444,0,0,0.010850694444444444,27.39800347222222,0)" xlink:href="#Q"/><use transform="matrix(0.010850694444444444,0,0,0.010850694444444444,39.127604166666664,0)" xlink:href="#R"/></g><path d="M613 24c-304 0-509-231-509-576 0-350 205-580 509-580 305 0 511 230 511 580 0 345-206 576-511 576zm0-161c226 0 329-195 329-415 0-222-103-419-329-419-223 0-326 196-326 419 0 220 103 415 326 415" id="S"/><path d="M158 0v-1118h175l1 205c55-151 181-225 313-225 147 0 245 90 285 228 53-141 190-228 352-228 194 0 352 125 352 384V0h-181v-749c0-161-105-225-225-225-151 0-243 103-243 244V0H807v-767c0-124-93-207-219-207-131 0-250 92-250 270V0H158" id="T"/><path d="M598-1118v154H368v674c0 100 37 144 132 144 23 0 62-6 92-12L629-6c-37 13-88 20-134 20-193 0-307-107-307-290v-688H20v-154h168v-266h180v266h230" id="U"/><g id="d"><use transform="matrix(0.010850694444444444,0,0,0.010850694444444444,0,0)" xlink:href="#J"/><use transform="matrix(0.010850694444444444,0,0,0.010850694444444444,16.23263888888889,0)" xlink:href="#S"/><use transform="matrix(0.010850694444444444,0,0,0.010850694444444444,29.557291666666664,0)" xlink:href="#T"/><use transform="matrix(0.010850694444444444,0,0,0.010850694444444444,49.0234375,0)" xlink:href="#T"/><use transform="matrix(0.010850694444444444,0,0,0.010850694444444444,68.48958333333333,0)" xlink:href="#H"/><use transform="matrix(0.010850694444444444,0,0,0.010850694444444444,81.4453125,0)" xlink:href="#M"/><use transform="matrix(0.010850694444444444,0,0,0.010850694444444444,94.57465277777777,0)" xlink:href="#U"/></g><path d="M98-1322v-168h1126v168H757V0H567v-1322H98" id="V"/><path d="M611 442c-248 0-391-105-460-228l146-94c47 65 117 165 314 165 178 0 307-82 307-266v-224h-17C863-141 792-18 576-18c-268 0-472-195-472-546 0-346 197-568 476-568 216 0 288 133 326 193h17v-179h175V29c0 289-215 413-487 413zm-5-620c203 0 314-146 314-390 0-237-108-403-314-403-213 0-319 180-319 403 0 230 109 390 319 390" id="W"/><g id="e"><use transform="matrix(0.010850694444444444,0,0,0.010850694444444444,0,0)" xlink:href="#V"/><use transform="matrix(0.010850694444444444,0,0,0.010850694444444444,12.71701388888889,0)" xlink:href="#L"/><use transform="matrix(0.010850694444444444,0,0,0.010850694444444444,25.1953125,0)" xlink:href="#W"/></g><path d="M657 26c-323 0-524-166-541-416h195c15 169 171 246 346 246 202 0 356-106 356-265 5-203-294-238-475-293-239-73-380-191-380-389 0-252 224-419 512-419 294 0 499 171 508 396H992c-17-145-151-228-328-228-193 0-321 102-321 242 0 156 175 211 284 241l149 41c160 44 422 134 422 412 0 244-197 432-541 432" id="X"/><path d="M613 24c-304 0-509-231-509-576 0-350 205-580 509-580 216 0 392 114 453 309l-173 49c-33-115-133-197-280-197-223 0-326 196-326 419 0 220 103 415 326 415 150 0 252-85 285-206l172 49C1010-95 832 24 613 24" id="Y"/><path d="M158 0v-1118h180V0H158zm91-1301c-68 0-125-53-125-119s57-119 125-119c69 0 126 53 126 119s-57 119-126 119" id="Z"/><path d="M481 0L54-1118h197c107 314 236 620 325 951 87-331 217-637 324-951h197L670 0H481" id="aa"/><g id="f"><use transform="matrix(0.010850694444444444,0,0,0.010850694444444444,0,0)" xlink:href="#X"/><use transform="matrix(0.010850694444444444,0,0,0.010850694444444444,14.2578125,0)" xlink:href="#Y"/><use transform="matrix(0.010850694444444444,0,0,0.010850694444444444,26.953125,0)" xlink:href="#I"/><use transform="matrix(0.010850694444444444,0,0,0.010850694444444444,35.666232638888886,0)" xlink:href="#Z"/><use transform="matrix(0.010850694444444444,0,0,0.010850694444444444,41.04817708333333,0)" xlink:href="#aa"/><use transform="matrix(0.010850694444444444,0,0,0.010850694444444444,53.10329861111111,0)" xlink:href="#H"/></g><path d="M180 0v-1490h190v644h782v-644h190V0h-190v-678H370V0H180" id="ab"/><g id="g"><use transform="matrix(0.010850694444444444,0,0,0.010850694444444444,0,0)" xlink:href="#ab"/><use transform="matrix(0.010850694444444444,0,0,0.010850694444444444,16.514756944444443,0)" xlink:href="#L"/></g><path d="M934 0v166H0V0h934" id="ac"/><path d="M537 14c-226 0-379-139-379-422v-710h180v695c0 172 97 275 253 275 160 0 281-109 281-300v-670h181V0H879v-209C806-46 684 14 537 14" id="ad"/><g id="h"><use transform="matrix(0.007595486111111112,0,0,0.007595486111111112,0,0)" xlink:href="#J"/><use transform="matrix(0.007595486111111112,0,0,0.007595486111111112,11.362847222222223,0)" xlink:href="#K"/><use transform="matrix(0.007595486111111112,0,0,0.007595486111111112,20.56098090277778,0)" xlink:href="#L"/><use transform="matrix(0.007595486111111112,0,0,0.007595486111111112,29.295789930555557,0)" xlink:href="#M"/><use transform="matrix(0.007595486111111112,0,0,0.007595486111111112,38.486328125,0)" xlink:href="#M"/><use transform="matrix(0.007595486111111112,0,0,0.007595486111111112,47.67686631944444,0)" xlink:href="#H"/><use transform="matrix(0.007595486111111112,0,0,0.007595486111111112,56.745876736111114,0)" xlink:href="#N"/><use transform="matrix(0.007595486111111112,0,0,0.007595486111111112,60.51323784722223,0)" xlink:href="#ac"/><use transform="matrix(0.007595486111111112,0,0,0.007595486111111112,67.607421875,0)" xlink:href="#ad"/><use transform="matrix(0.007595486111111112,0,0,0.007595486111111112,76.80555555555556,0)" xlink:href="#G"/><use transform="matrix(0.007595486111111112,0,0,0.007595486111111112,85.01627604166667,0)" xlink:href="#H"/><use transform="matrix(0.007595486111111112,0,0,0.007595486111111112,94.08528645833334,0)" xlink:href="#I"/></g><path d="M180 0v-1490h510c348 0 508 209 508 474 0 266-160 477-507 477H370V0H180zm190-706h312c236 0 327-133 327-310 0-176-91-307-329-307H370v617" id="ae"/><g id="i"><use transform="matrix(0.010850694444444444,0,0,0.010850694444444444,0,0)" xlink:href="#ae"/><use transform="matrix(0.010850694444444444,0,0,0.010850694444444444,14.073350694444445,0)" xlink:href="#S"/><use transform="matrix(0.010850694444444444,0,0,0.010850694444444444,27.39800347222222,0)" xlink:href="#G"/><use transform="matrix(0.010850694444444444,0,0,0.010850694444444444,39.127604166666664,0)" xlink:href="#U"/><use transform="matrix(0.010850694444444444,0,0,0.010850694444444444,46.39756944444444,0)" xlink:href="#ac"/><use transform="matrix(0.010850694444444444,0,0,0.010850694444444444,56.53211805555555,0)" xlink:href="#U"/><use transform="matrix(0.010850694444444444,0,0,0.010850694444444444,63.91059027777778,0)" xlink:href="#L"/><use transform="matrix(0.010850694444444444,0,0,0.010850694444444444,76.38888888888889,0)" xlink:href="#W"/></g><path fill="#333" d="M749-1490V0H444v-1221h-10L93-980v-279l329-231h327" id="af"/><path fill="#333" d="M119 395l88-620h300L323 395H119" id="ag"/><path fill="#333" d="M135 0v-1490h340l471 754c59 97 122 210 187 365-32-387-14-721-19-1119h312V0h-341C855-382 627-689 427-1113c32 420 16 695 20 1113H135" id="ah"/><g id="j"><use transform="matrix(0.010850694444444444,0,0,0.010850694444444444,0,0)" xlink:href="#af"/><use transform="matrix(0.010850694444444444,0,0,0.010850694444444444,9.581163194444445,0)" xlink:href="#ag"/><use transform="matrix(0.010850694444444444,0,0,0.010850694444444444,17.003038194444443,0)" xlink:href="#ah"/></g><path fill="#333" d="M690 20C314 20 94-261 94-744c0-482 221-766 596-766 376 0 597 284 597 766 0 483-219 764-597 764zm0-253c184 0 286-184 286-511 0-328-102-514-286-514-183 0-285 187-285 514s101 511 285 511" id="ai"/><g id="k"><use transform="matrix(0.010850694444444444,0,0,0.010850694444444444,0,0)" xlink:href="#ai"/><use transform="matrix(0.010850694444444444,0,0,0.010850694444444444,14.33376736111111,0)" xlink:href="#ag"/><use transform="matrix(0.010850694444444444,0,0,0.010850694444444444,19.74826388888889,0)" xlink:href="#af"/></g><g id="l"><use transform="matrix(0.010850694444444444,0,0,0.010850694444444444,0,0)" xlink:href="#af"/><use transform="matrix(0.010850694444444444,0,0,0.010850694444444444,9.581163194444445,0)" xlink:href="#ag"/><use transform="matrix(0.010850694444444444,0,0,0.010850694444444444,14.995659722222221,0)" xlink:href="#af"/></g><path d="M600 0L52-1490h200c166 485 304 806 458 1336 156-533 285-846 449-1336h202L819 0H600" id="aj"/><g id="m"><use transform="matrix(0.010850694444444444,0,0,0.010850694444444444,0,0)" xlink:href="#aj"/><use transform="matrix(0.010850694444444444,0,0,0.010850694444444444,14.20355902777778,0)" xlink:href="#S"/><use transform="matrix(0.010850694444444444,0,0,0.010850694444444444,27.52821180555556,0)" xlink:href="#U"/><use transform="matrix(0.010850694444444444,0,0,0.010850694444444444,34.58116319444444,0)" xlink:href="#S"/></g><path d="M180 0v-1490h270l367 940c28 72 75 218 110 339 35-117 81-264 110-339l362-940h271V0h-187c2-448-5-837 7-1287-157 497-311 829-483 1287H842C666-458 514-784 354-1284c12 438 5 843 7 1284H180" id="ak"/><g id="n"><use transform="matrix(0.010850694444444444,0,0,0.010850694444444444,0,0)" xlink:href="#ak"/><use transform="matrix(0.010850694444444444,0,0,0.010850694444444444,20.07378472222222,0)" xlink:href="#H"/><use transform="matrix(0.010850694444444444,0,0,0.010850694444444444,33.029513888888886,0)" xlink:href="#U"/><use transform="matrix(0.010850694444444444,0,0,0.010850694444444444,39.75694444444444,0)" xlink:href="#U"/><use transform="matrix(0.010850694444444444,0,0,0.010850694444444444,46.80989583333333,0)" xlink:href="#H"/></g><path d="M180 0v-1490h510c348 0 508 194 508 460 0 198-88 351-276 417L1256 0h-220L726-579c-117 2-238 0-356 1V0H180zm190-747h312c235 0 327-108 327-283 0-177-92-293-329-293H370v576" id="al"/><g id="o"><use transform="matrix(0.010850694444444444,0,0,0.010850694444444444,0,0)" xlink:href="#al"/><use transform="matrix(0.010850694444444444,0,0,0.010850694444444444,13.975694444444445,0)" xlink:href="#H"/><use transform="matrix(0.010850694444444444,0,0,0.010850694444444444,26.931423611111104,0)" xlink:href="#N"/><use transform="matrix(0.010850694444444444,0,0,0.010850694444444444,32.31336805555555,0)" xlink:href="#L"/><use transform="matrix(0.010850694444444444,0,0,0.010850694444444444,44.79166666666666,0)" xlink:href="#U"/><use transform="matrix(0.010850694444444444,0,0,0.010850694444444444,52.061631944444436,0)" xlink:href="#Z"/><use transform="matrix(0.010850694444444444,0,0,0.010850694444444444,57.44357638888888,0)" xlink:href="#aa"/><use transform="matrix(0.010850694444444444,0,0,0.010850694444444444,69.49869791666666,0)" xlink:href="#S"/></g><path d="M180 0v-1490h224l606 953c40 63 108 177 176 312-27-437-7-821-13-1265h190V0h-226C860-448 622-778 356-1262c27 476 11 792 15 1262H180" id="am"/><path d="M784 20c-382 0-662-292-662-764 0-473 280-766 662-766s660 293 660 766c0 472-278 764-660 764zm0-176c266 0 475-207 475-588 0-383-209-590-475-590-268 0-477 208-477 590 0 380 209 588 477 588" id="an"/><path d="M180 0v-1490h908v168H370v486h669v168H370v500h727V0H180" id="ao"/><g id="p"><use transform="matrix(0.005350657212037359,0,0,0.005350657212037359,0,0)" xlink:href="#am"/><use transform="matrix(0.005350657212037359,0,0,0.005350657212037359,8.256064078173644,0)" xlink:href="#an"/><use transform="matrix(0.005350657212037359,0,0,0.005350657212037359,16.635193272224146,0)" xlink:href="#ak"/><use transform="matrix(0.005350657212037359,0,0,0.005350657212037359,26.53390911449326,0)" xlink:href="#ao"/></g><path d="M52 0l541-1490h220L1361 0h-200l-149-416H398L254 0H52zm404-582h497c-103-290-145-390-251-756-108 377-145 460-246 756" id="ap"/><path d="M370-1490V0H180v-1490h190" id="aq"/><path d="M180 0v-1490h190v1322h690V0H180" id="ar"/><g id="q"><use transform="matrix(0.005350657212037359,0,0,0.005350657212037359,0,0)" xlink:href="#ao"/><use transform="matrix(0.005350657212037359,0,0,0.005350657212037359,6.586659028017989,0)" xlink:href="#ak"/><use transform="matrix(0.005350657212037359,0,0,0.005350657212037359,16.4853748702871,0)" xlink:href="#ap"/><use transform="matrix(0.005350657212037359,0,0,0.005350657212037359,24.045853510895885,0)" xlink:href="#aq"/><use transform="matrix(0.005350657212037359,0,0,0.005350657212037359,26.988714977516434,0)" xlink:href="#ar"/></g><path d="M458 0L52-1490h194c108 439 233 855 324 1313 92-459 221-873 331-1313h216c110 438 234 854 330 1307 92-455 216-869 323-1307h196L1558 0h-221l-256-944c-26-95-50-200-73-331-22 122-44 223-73 331L680 0H458" id="as"/><path d="M645 0H180v-1490h484c435 0 692 280 692 742 0 466-257 748-711 748zM370-168h263c363 0 539-218 539-580 0-358-176-574-521-574H370v1154" id="at"/><g id="r"><use transform="matrix(0.004239562397222729,0,0,0.004239562397222729,0,0)" xlink:href="#ae"/><use transform="matrix(0.004239562397222729,0,0,0.004239562397222729,4.905173693586698,0)" xlink:href="#ap"/><use transform="matrix(0.004239562397222729,0,0,0.004239562397222729,10.895675360862414,0)" xlink:href="#X"/><use transform="matrix(0.004239562397222729,0,0,0.004239562397222729,16.46646035081308,0)" xlink:href="#X"/><use transform="matrix(0.004239562397222729,0,0,0.004239562397222729,22.037245340763747,0)" xlink:href="#as"/><use transform="matrix(0.004239562397222729,0,0,0.004239562397222729,30.592682258359215,0)" xlink:href="#an"/><use transform="matrix(0.004239562397222729,0,0,0.004239562397222729,37.231836972410015,0)" xlink:href="#al"/><use transform="matrix(0.004239562397222729,0,0,0.004239562397222729,42.81958021194957,0)" xlink:href="#at"/></g><path d="M440-1490V0H135v-1490h305" id="au"/><path d="M659 0H135v-1490h529c448 0 721 280 721 744 0 466-273 746-726 746zM440-263h204c287 0 437-148 437-483 0-333-150-481-435-481H440v964" id="av"/><g id="s"><use transform="matrix(0.005350657212037359,0,0,0.005350657212037359,0,0)" xlink:href="#au"/><use transform="matrix(0.005350657212037359,0,0,0.005350657212037359,3.0766278969214813,0)" xlink:href="#av"/><path d="M-.55 2.24h12.1v1.02H-.56z"/></g><g id="t"><use transform="matrix(0.004239562397222729,0,0,0.004239562397222729,0,0)" xlink:href="#J"/><use transform="matrix(0.004239562397222729,0,0,0.004239562397222729,6.342385346245204,0)" xlink:href="#al"/><use transform="matrix(0.004239562397222729,0,0,0.004239562397222729,11.930128585784763,0)" xlink:href="#ao"/><use transform="matrix(0.004239562397222729,0,0,0.004239562397222729,17.149029896765942,0)" xlink:href="#ap"/><use transform="matrix(0.004239562397222729,0,0,0.004239562397222729,22.401847706924904,0)" xlink:href="#V"/><use transform="matrix(0.004239562397222729,0,0,0.004239562397222729,28.006549196053353,0)" xlink:href="#ao"/><use transform="matrix(0.004239562397222729,0,0,0.004239562397222729,33.22545050703453,0)" xlink:href="#at"/><use transform="matrix(0.004239562397222729,0,0,0.004239562397222729,39.14811917595468,0)" xlink:href="#ac"/><use transform="matrix(0.004239562397222729,0,0,0.004239562397222729,43.10787045496071,0)" xlink:href="#ap"/><use transform="matrix(0.004239562397222729,0,0,0.004239562397222729,48.36068826511967,0)" xlink:href="#V"/></g><g id="u"><use transform="matrix(0.004239562397222729,0,0,0.004239562397222729,0,0)" xlink:href="#F"/><use transform="matrix(0.004239562397222729,0,0,0.004239562397222729,6.46109309336744,0)" xlink:href="#ae"/><use transform="matrix(0.004239562397222729,0,0,0.004239562397222729,12.006440708934768,0)" xlink:href="#at"/><use transform="matrix(0.004239562397222729,0,0,0.004239562397222729,17.97574456422437,0)" xlink:href="#ap"/><use transform="matrix(0.004239562397222729,0,0,0.004239562397222729,23.228562374383337,0)" xlink:href="#V"/><use transform="matrix(0.004239562397222729,0,0,0.004239562397222729,28.833263863511785,0)" xlink:href="#ao"/><use transform="matrix(0.004239562397222729,0,0,0.004239562397222729,34.05216517449296,0)" xlink:href="#at"/><use transform="matrix(0.004239562397222729,0,0,0.004239562397222729,39.974833843413116,0)" xlink:href="#ac"/><use transform="matrix(0.004239562397222729,0,0,0.004239562397222729,43.93458512241915,0)" xlink:href="#ap"/><use transform="matrix(0.004239562397222729,0,0,0.004239562397222729,49.1874029325781,0)" xlink:href="#V"/></g><path d="M180 0v-1490h528c311 0 458 177 458 395 0 191-114 278-244 313v14c139 9 302 137 302 371 0 225-148 397-499 397H180zm190-168h350c232 0 321-102 321-231 0-149-120-277-311-277H370v508zm0-668h328c160 0 286-101 286-255 0-129-87-231-280-231H370v486" id="aw"/><g id="v"><use transform="matrix(0.004239562397222729,0,0,0.004239562397222729,0,0)" xlink:href="#aj"/><use transform="matrix(0.004239562397222729,0,0,0.004239562397222729,5.697971861867348,0)" xlink:href="#an"/><use transform="matrix(0.004239562397222729,0,0,0.004239562397222729,12.078513269687557,0)" xlink:href="#V"/><use transform="matrix(0.004239562397222729,0,0,0.004239562397222729,16.94553090169925,0)" xlink:href="#ap"/><use transform="matrix(0.004239562397222729,0,0,0.004239562397222729,22.93603256897497,0)" xlink:href="#aw"/><use transform="matrix(0.004239562397222729,0,0,0.004239562397222729,28.61704618125343,0)" xlink:href="#ar"/><use transform="matrix(0.004239562397222729,0,0,0.004239562397222729,33.52645943723735,0)" xlink:href="#ao"/><use transform="matrix(0.004239562397222729,0,0,0.004239562397222729,38.74536074821853,0)" xlink:href="#ac"/><use transform="matrix(0.004239562397222729,0,0,0.004239562397222729,42.99764183263293,0)" xlink:href="#aq"/><use transform="matrix(0.004239562397222729,0,0,0.004239562397222729,45.32940115110543,0)" xlink:href="#at"/></g><path d="M600 0v-610L52-1490h220l295 481c50 82 90 150 130 243 40-96 80-164 128-243l294-481h219L790-610V0H600" id="ax"/><g id="w"><use transform="matrix(0.003510571904077464,0,0,0.003510571904077464,0,0)" xlink:href="#aj"/><use transform="matrix(0.003510571904077464,0,0,0.003510571904077464,4.718208639080111,0)" xlink:href="#an"/><use transform="matrix(0.003510571904077464,0,0,0.003510571904077464,10.001619354716697,0)" xlink:href="#V"/><use transform="matrix(0.003510571904077464,0,0,0.003510571904077464,14.031755900597625,0)" xlink:href="#ap"/><use transform="matrix(0.003510571904077464,0,0,0.003510571904077464,18.992194001059083,0)" xlink:href="#aw"/><use transform="matrix(0.003510571904077464,0,0,0.003510571904077464,23.696360352522888,0)" xlink:href="#ar"/><use transform="matrix(0.003510571904077464,0,0,0.003510571904077464,27.76160261744459,0)" xlink:href="#ao"/><use transform="matrix(0.003510571904077464,0,0,0.003510571904077464,32.08311663136395,0)" xlink:href="#ac"/><use transform="matrix(0.003510571904077464,0,0,0.003510571904077464,34.95476444889932,0)" xlink:href="#V"/><use transform="matrix(0.003510571904077464,0,0,0.003510571904077464,39.736163382252826,0)" xlink:href="#ax"/><use transform="matrix(0.003510571904077464,0,0,0.003510571904077464,44.6158583289205,0)" xlink:href="#ae"/><use transform="matrix(0.003510571904077464,0,0,0.003510571904077464,49.207686379453826,0)" xlink:href="#ao"/></g><g id="x"><use transform="matrix(0.005350657212037359,0,0,0.005350657212037359,0,0)" xlink:href="#aj"/><use transform="matrix(0.005350657212037359,0,0,0.005350657212037359,6.8113866309235584,0)" xlink:href="#ap"/><use transform="matrix(0.005350657212037359,0,0,0.005350657212037359,14.371865271532346,0)" xlink:href="#ar"/><use transform="matrix(0.005350657212037359,0,0,0.005350657212037359,20.567926323071607,0)" xlink:href="#F"/><use transform="matrix(0.005350657212037359,0,0,0.005350657212037359,28.72232791421654,0)" xlink:href="#ao"/></g><g id="y"><use transform="matrix(0.004239562397222729,0,0,0.004239562397222729,0,0)" xlink:href="#J"/><use transform="matrix(0.004239562397222729,0,0,0.004239562397222729,6.342385346245204,0)" xlink:href="#an"/><use transform="matrix(0.004239562397222729,0,0,0.004239562397222729,12.981540060295998,0)" xlink:href="#am"/><use transform="matrix(0.004239562397222729,0,0,0.004239562397222729,19.52318483921067,0)" xlink:href="#V"/><use transform="matrix(0.004239562397222729,0,0,0.004239562397222729,25.127886328339116,0)" xlink:href="#ao"/><use transform="matrix(0.004239562397222729,0,0,0.004239562397222729,30.346787639320297,0)" xlink:href="#am"/><use transform="matrix(0.004239562397222729,0,0,0.004239562397222729,36.88843241823497,0)" xlink:href="#V"/><use transform="matrix(0.004239562397222729,0,0,0.004239562397222729,42.493133907363415,0)" xlink:href="#F"/><use transform="matrix(0.004239562397222729,0,0,0.004239562397222729,48.95422700073086,0)" xlink:href="#V"/><use transform="matrix(0.004239562397222729,0,0,0.004239562397222729,54.30031518362872,0)" xlink:href="#an"/></g><path fill="#fff" d="M98-1322v-168h1126v168H757V0H567v-1322H98" id="ay"/><path fill="#fff" d="M370-1490V0H180v-1490h190" id="az"/><path fill="#fff" d="M784 20c-382 0-662-292-662-764 0-473 280-766 662-766s660 293 660 766c0 472-278 764-660 764zm0-176c266 0 475-207 475-588 0-383-209-590-475-590-268 0-477 208-477 590 0 380 209 588 477 588" id="aA"/><path fill="#fff" d="M180 0v-1490h190v1322h690V0H180" id="aB"/><g id="z"><use transform="matrix(0.004239562397222729,0,0,0.004239562397222729,0,0)" xlink:href="#ay"/><use transform="matrix(0.004239562397222729,0,0,0.004239562397222729,5.604701489128448,0)" xlink:href="#az"/><use transform="matrix(0.004239562397222729,0,0,0.004239562397222729,7.93646080760095,0)" xlink:href="#ay"/><use transform="matrix(0.004239562397222729,0,0,0.004239562397222729,13.282548990498814,0)" xlink:href="#aA"/><use transform="matrix(0.004239562397222729,0,0,0.004239562397222729,19.921703704549607,0)" xlink:href="#aB"/><use transform="matrix(0.004239562397222729,0,0,0.004239562397222729,24.585222341494607,0)" xlink:href="#aA"/></g><path fill="#fff" d="M440-1490V0H135v-1490h305" id="aC"/><path fill="#fff" d="M659 0H135v-1490h529c448 0 721 280 721 744 0 466-273 746-726 746zM440-263h204c287 0 437-148 437-483 0-333-150-481-435-481H440v964" id="aD"/><g id="A"><use transform="matrix(0.005350657212037359,0,0,0.005350657212037359,0,0)" xlink:href="#aC"/><use transform="matrix(0.005350657212037359,0,0,0.005350657212037359,3.0766278969214813,0)" xlink:href="#aD"/><path fill="#fff" d="M-.55 2.24h12.1v1.02H-.56z"/></g><path fill="#fff" d="M783 20c-382 0-661-292-661-764 0-473 279-766 661-766 302 0 548 182 601 489h-190c-42-204-217-313-411-313-268 0-476 208-476 590 0 381 209 588 476 588 195 0 369-110 411-313h190c-52 303-296 489-601 489" id="aE"/><path fill="#fff" d="M180 0v-1490h510c348 0 508 194 508 460 0 198-88 351-276 417L1256 0h-220L726-579c-117 2-238 0-356 1V0H180zm190-747h312c235 0 327-108 327-283 0-177-92-293-329-293H370v576" id="aF"/><path fill="#fff" d="M180 0v-1490h908v168H370v486h669v168H370v500h727V0H180" id="aG"/><path fill="#fff" d="M52 0l541-1490h220L1361 0h-200l-149-416H398L254 0H52zm404-582h497c-103-290-145-390-251-756-108 377-145 460-246 756" id="aH"/><path fill="#fff" d="M645 0H180v-1490h484c435 0 692 280 692 742 0 466-257 748-711 748zM370-168h263c363 0 539-218 539-580 0-358-176-574-521-574H370v1154" id="aI"/><path fill="#fff" d="M934 0v166H0V0h934" id="aJ"/><g id="B"><use transform="matrix(0.004239562397222729,0,0,0.004239562397222729,0,0)" xlink:href="#aE"/><use transform="matrix(0.004239562397222729,0,0,0.004239562397222729,6.342385346245204,0)" xlink:href="#aF"/><use transform="matrix(0.004239562397222729,0,0,0.004239562397222729,11.930128585784763,0)" xlink:href="#aG"/><use transform="matrix(0.004239562397222729,0,0,0.004239562397222729,17.149029896765942,0)" xlink:href="#aH"/><use transform="matrix(0.004239562397222729,0,0,0.004239562397222729,22.401847706924904,0)" xlink:href="#ay"/><use transform="matrix(0.004239562397222729,0,0,0.004239562397222729,28.006549196053353,0)" xlink:href="#aG"/><use transform="matrix(0.004239562397222729,0,0,0.004239562397222729,33.22545050703453,0)" xlink:href="#aI"/><use transform="matrix(0.004239562397222729,0,0,0.004239562397222729,39.14811917595468,0)" xlink:href="#aJ"/><use transform="matrix(0.004239562397222729,0,0,0.004239562397222729,43.10787045496071,0)" xlink:href="#aH"/><use transform="matrix(0.004239562397222729,0,0,0.004239562397222729,48.36068826511967,0)" xlink:href="#ay"/></g><path fill="#fff" d="M763 24c-353 0-583-224-583-531v-983h190v968c0 214 149 370 393 370 243 0 391-156 391-370v-968h190v983c0 307-230 531-581 531" id="aK"/><g id="C"><use transform="matrix(0.004239562397222729,0,0,0.004239562397222729,0,0)" xlink:href="#aK"/><use transform="matrix(0.004239562397222729,0,0,0.004239562397222729,6.46109309336744,0)" xlink:href="#O"/><use transform="matrix(0.004239562397222729,0,0,0.004239562397222729,12.006440708934768,0)" xlink:href="#aI"/><use transform="matrix(0.004239562397222729,0,0,0.004239562397222729,17.97574456422437,0)" xlink:href="#aH"/><use transform="matrix(0.004239562397222729,0,0,0.004239562397222729,23.228562374383337,0)" xlink:href="#ay"/><use transform="matrix(0.004239562397222729,0,0,0.004239562397222729,28.833263863511785,0)" xlink:href="#aG"/><use transform="matrix(0.004239562397222729,0,0,0.004239562397222729,34.05216517449296,0)" xlink:href="#aI"/><use transform="matrix(0.004239562397222729,0,0,0.004239562397222729,39.974833843413116,0)" xlink:href="#aJ"/><use transform="matrix(0.004239562397222729,0,0,0.004239562397222729,43.93458512241915,0)" xlink:href="#aH"/><use transform="matrix(0.004239562397222729,0,0,0.004239562397222729,49.1874029325781,0)" xlink:href="#ay"/></g><path fill="#fff" d="M657 26c-323 0-524-166-541-416h195c15 169 171 246 346 246 202 0 356-106 356-265 5-203-294-238-475-293-239-73-380-191-380-389 0-252 224-419 512-419 294 0 499 171 508 396H992c-17-145-151-228-328-228-193 0-321 102-321 242 0 156 175 211 284 241l149 41c160 44 422 134 422 412 0 244-197 432-541 432" id="aL"/><path fill="#fff" d="M180 0v-1490h270l367 940c28 72 75 218 110 339 35-117 81-264 110-339l362-940h271V0h-187c2-448-5-837 7-1287-157 497-311 829-483 1287H842C666-458 514-784 354-1284c12 438 5 843 7 1284H180" id="aM"/><path fill="#fff" d="M789 20c-398 0-667-293-667-764 0-473 273-766 655-766 315 0 558 198 612 487h-196c-61-191-204-311-415-311-262 0-471 207-471 590 0 380 208 588 482 588 249 0 420-165 425-427H828v-166h572v163c0 370-256 606-611 606" id="aN"/><path fill="#fff" d="M180 0v-1490h224l606 953c40 63 108 177 176 312-27-437-7-821-13-1265h190V0h-226C860-448 622-778 356-1262c27 476 11 792 15 1262H180" id="aO"/><g id="D"><use transform="matrix(0.0029954976762199847,0,0,0.0029954976762199847,0,0)" xlink:href="#O"/><use transform="matrix(0.0029954976762199847,0,0,0.0029954976762199847,3.91811096049574,0)" xlink:href="#aG"/><use transform="matrix(0.0029954976762199847,0,0,0.0029954976762199847,7.60556859992254,0)" xlink:href="#aF"/><use transform="matrix(0.0029954976762199847,0,0,0.0029954976762199847,11.55363453718048,0)" xlink:href="#aE"/><use transform="matrix(0.0029954976762199847,0,0,0.0029954976762199847,16.03489906080558,0)" xlink:href="#aA"/><use transform="matrix(0.0029954976762199847,0,0,0.0029954976762199847,20.725848421766077,0)" xlink:href="#aF"/><use transform="matrix(0.0029954976762199847,0,0,0.0029954976762199847,24.67391435902402,0)" xlink:href="#aL"/><use transform="matrix(0.0029954976762199847,0,0,0.0029954976762199847,28.60999830557708,0)" xlink:href="#aA"/><use transform="matrix(0.0029954976762199847,0,0,0.0029954976762199847,33.05831235476376,0)" xlink:href="#aJ"/><use transform="matrix(0.0029954976762199847,0,0,0.0029954976762199847,36.0627965240124,0)" xlink:href="#az"/><use transform="matrix(0.0029954976762199847,0,0,0.0029954976762199847,37.71032024593339,0)" xlink:href="#aM"/><use transform="matrix(0.0029954976762199847,0,0,0.0029954976762199847,43.25199094694036,0)" xlink:href="#aM"/><use transform="matrix(0.0029954976762199847,0,0,0.0029954976762199847,48.79366164794733,0)" xlink:href="#aH"/><use transform="matrix(0.0029954976762199847,0,0,0.0029954976762199847,52.81661502711077,0)" xlink:href="#aN"/><use transform="matrix(0.0029954976762199847,0,0,0.0029954976762199847,57.39373547637492,0)" xlink:href="#az"/><use transform="matrix(0.0029954976762199847,0,0,0.0029954976762199847,59.04125919829591,0)" xlink:href="#aO"/><use transform="matrix(0.0029954976762199847,0,0,0.0029954976762199847,63.663312112703345,0)" xlink:href="#aG"/></g><g id="E"><use transform="matrix(0.004239562397222729,0,0,0.004239562397222729,0,0)" xlink:href="#aE"/><use transform="matrix(0.004239562397222729,0,0,0.004239562397222729,6.342385346245204,0)" xlink:href="#aA"/><use transform="matrix(0.004239562397222729,0,0,0.004239562397222729,12.981540060295998,0)" xlink:href="#aO"/><use transform="matrix(0.004239562397222729,0,0,0.004239562397222729,19.52318483921067,0)" xlink:href="#ay"/><use transform="matrix(0.004239562397222729,0,0,0.004239562397222729,25.127886328339116,0)" xlink:href="#aG"/><use transform="matrix(0.004239562397222729,0,0,0.004239562397222729,30.346787639320297,0)" xlink:href="#aO"/><use transform="matrix(0.004239562397222729,0,0,0.004239562397222729,36.88843241823497,0)" xlink:href="#ay"/></g></defs></g></svg>